<?xml version="1.0" encoding="UTF-8"?>
<svg id="Layer_1" xmlns="http://www.w3.org/2000/svg" version="1.1" viewBox="0 0 99 103.4">
  <!-- Generator: Adobe Illustrator 29.1.0, SVG Export Plug-In . SVG Version: 2.1.0 Build 142)  -->
  <defs>
    <style>
      .st0 {
        fill: #55348c;
      }
    </style>
  </defs>
  <path class="st0" d="M51.5,98.2c0,2.6-2,4.7-4.6,4.8-.8,0-1.6,0-2.4,0-18.1,0-35.8-4.6-36.6-4.8-1.7-.4-3-1.8-3.4-3.5-.2-.8-4.5-19.5-4.5-43.2S4.4,9.1,4.6,8.3c.4-1.7,1.7-3,3.4-3.5.7-.2,18.5-4.8,36.6-4.8s35.8,4.6,36.6,4.8c1.7.4,3,1.8,3.4,3.5.1.5,2.9,12.2,4,28.9.2,2.6-1.8,4.8-4.3,5-2.5.2-4.8-1.8-5-4.3-.8-11.2-2.4-20.2-3.2-24.6-5.6-1.3-18.6-3.9-31.4-3.9s-25.9,2.6-31.4,3.9c-1.2,6-3.7,20.9-3.7,38.3s2.5,32.3,3.7,38.3c5.9,1.3,20.1,4.2,33.7,3.8,2.5-.1,4.7,2,4.8,4.6h0ZM28.1,23.4h-4.7c-2.6,0-4.7,2.1-4.7,4.7s2.1,4.7,4.7,4.7h4.7c2.6,0,4.7-2.1,4.7-4.7s-2.1-4.7-4.7-4.7ZM28.1,60.9h-4.7c-2.6,0-4.7,2.1-4.7,4.7s2.1,4.7,4.7,4.7h4.7c2.6,0,4.7-2.1,4.7-4.7s-2.1-4.7-4.7-4.7ZM65.6,28.1c0-2.6-2.1-4.7-4.7-4.7h-14.1c-2.6,0-4.7,2.1-4.7,4.7s2.1,4.7,4.7,4.7h14.1c2.6,0,4.7-2.1,4.7-4.7ZM46.8,42.2c-2.6,0-4.7,2.1-4.7,4.7s2.1,4.7,4.7,4.7h4.7c2.6,0,4.7-2.1,4.7-4.7s-2.1-4.7-4.7-4.7h-4.7ZM28.1,42.2h-4.7c-2.6,0-4.7,2.1-4.7,4.7s2.1,4.7,4.7,4.7h4.7c2.6,0,4.7-2.1,4.7-4.7s-2.1-4.7-4.7-4.7ZM74.8,55c-13.4,0-24.2,10.8-24.2,24.2s10.8,24.2,24.2,24.2,24.2-10.8,24.2-24.2-10.8-24.2-24.2-24.2ZM83.2,85.5c-.3,1.9-1.3,3.7-2.7,5-1,.9-2.1,1.5-3.3,1.9v1.1c0,1.4-1.1,2.5-2.5,2.5s-2.5-1.1-2.5-2.5v-.9c-1.6-.2-2.9-.7-4.7-1.9-1.1-.7-1.5-2.3-.7-3.4.7-1.1,2.3-1.5,3.4-.7,1.7,1.1,2.3,1.2,4.5,1.2,2.1,0,3.4-1.6,3.6-3.1.1-.7.2-2.5-2-3.2-2.6-.9-5.2-1.9-7-3.4-1.8-1.4-2.7-3.9-2.2-6.4.5-2.8,2.4-4.9,5-5.7,0,0,0,0,0,0v-.9c0-1.4,1.1-2.5,2.5-2.5s2.5,1.1,2.5,2.5v.8c1.7.4,2.9,1.2,3.3,1.5,1.1.8,1.3,2.4.5,3.5-.8,1.1-2.4,1.3-3.5.5-.5-.4-1.9-1.2-4-.6-1.2.4-1.5,1.5-1.6,1.9-.1.7,0,1.3.4,1.6,1.3,1,3.5,1.9,5.6,2.6,3.8,1.3,5.9,4.8,5.2,8.7Z"/>
</svg>