<?xml version="1.0" encoding="UTF-8"?>
<svg id="Layer_1" xmlns="http://www.w3.org/2000/svg" version="1.1" viewBox="0 0 192 114.2">
  <!-- Generator: Adobe Illustrator 29.1.0, SVG Export Plug-In . SVG Version: 2.1.0 Build 142)  -->
  <defs>
    <style>
      .st0 {
        fill: #ede4e3;
      }

      .st1 {
        stroke-width: 3px;
      }

      .st1, .st2 {
        fill: none;
        stroke: #55348c;
        stroke-linejoin: round;
      }

      .st3 {
        fill: #beb3d2;
      }

      .st4 {
        fill: #55348c;
      }

      .st5 {
        fill: #97b7a4;
      }

      .st2 {
        stroke-width: 1.4px;
      }

      .st6 {
        fill: #f3cc94;
      }
    </style>
  </defs>
  <polygon class="st4" points="69.5 75.3 22.7 73.4 26.3 27.8 69.5 75.3"/>
  <polygon class="st3" points="115.5 29.8 26.3 27.8 69.5 75.3 136.4 76.2 115.5 29.8"/>
  <circle class="st0" cx="22.7" cy="50.7" r="22.7"/>
  <circle class="st3" cx="22.7" cy="50.7" r="17.5"/>
  <ellipse class="st6" cx="22.7" cy="50.7" rx="10.7" ry="17.5" transform="translate(-28.9 71.2) rotate(-87.6)"/>
  <circle class="st0" cx="68.8" cy="51.4" r="22.7"/>
  <circle class="st3" cx="68.8" cy="51.4" r="17.5"/>
  <ellipse class="st6" cx="68.8" cy="51.4" rx="10.7" ry="17.5" transform="translate(14.5 117.9) rotate(-87.6)"/>
  <path class="st5" d="M192,92.4s-6.9,11-27.7,17.6c-20.8,6.6-30,1.7-30,1.7,0,0-2.9-7.8-6.2-17.4,0,0,26.7.6,54.2-19.7,5.1,9.5,9.6,17.8,9.6,17.8Z"/>
  <path class="st6" d="M182.4,74.6c-27.5,20.3-54.2,19.7-54.2,19.7-2.7-8-5.6-17.3-7.3-24.5-3.7-15.9-6.2-33.2-6.2-33.2,0,0-15.5-7.2-18.6-8.8-3.1-1.6-4.7-4.9-3.7-7.2.9-2.3,3.6-4.2,6.7-3.7,3,.5,25,6.7,25,6.7,0,0,1.7-1.8,4-2.4,2.3-.6,5,0,6.3,1.8,0,0,.6-2.7,3.4-3,0,0-5.8-13.5-4.6-15.5,1.1-2,6.2-6.7,9.5-3.4,3.3,3.3,21.1,38.9,26.1,48.1,2.6,4.7,8.5,15.7,13.8,25.4Z"/>
  <path class="st5" d="M70.6,89.1l-1.2,20s-9,7.8-30.5,4.1c-21.6-3.7-31.3-11.2-31.3-11.2l5.8-20.5s23.5,14.2,57.2,7.5Z"/>
  <path class="st6" d="M91.7,75.6c-3.8,11.6-21.1,13.5-21.1,13.5-33.7,6.7-57.2-7.5-57.2-7.5l2.6-9.2,75.7,3.2Z"/>
  <path class="st6" d="M30,27.8s.8-11.9,8-13.1,8.1,5.8,8.1,5.8c0,0,4.6-6,7.4-5.9s6.3.4,6.7,3.8c0,0,6.8-3.7,11.5,1.8,0,0,4.3-2.1,6.6,0s3,6.1,1.2,8.8l-49.6-1.1Z"/>
  <line class="st1" x1="146.4" y1="23.4" x2="156" y2="40.8"/>
  <path class="st1" d="M135.9,1.5s5.5,11.7,7.2,11.2,4.6-2.9,4.6-2.9"/>
  <line class="st1" x1="135.1" y1="24.4" x2="147.1" y2="45.1"/>
  <path class="st1" d="M135.8,50.3s-6.2-18.5-6.8-21.7-5-5-5-5l-7.8-2.2"/>
  <path class="st1" d="M94.7,17.8s7.3,3.9,9,3.1,2.7-2.2,2.7-2.2"/>
  <path class="st1" d="M60.3,18.4s.8,4-2.4,9.5"/>
  <path class="st1" d="M71.7,20.2s.4,6-2.4,8.5"/>
  <path class="st1" d="M43.5,15.9s4.2,4.8,0,12.1"/>
  <line class="st2" x1="26.4" y1="87" x2="21.1" y2="108.6"/>
  <line class="st2" x1="170.3" y1="82.3" x2="180.8" y2="102.4"/>
  <g>
    <circle class="st2" cx="34.8" cy="100.6" r="4.8"/>
    <line class="st2" x1="36.6" y1="99" x2="33" y2="102.2"/>
    <line class="st2" x1="36.4" y1="102.4" x2="33.2" y2="98.8"/>
  </g>
  <g>
    <circle class="st2" cx="165.5" cy="97.2" r="4.8"/>
    <line class="st2" x1="166.9" y1="95.2" x2="164.1" y2="99.1"/>
    <line class="st2" x1="167.4" y1="98.6" x2="163.6" y2="95.7"/>
  </g>
  <g>
    <circle class="st4" cx="26" cy="49.5" r="2.5"/>
    <path class="st1" d="M21.1,54.3s2.1-2.5,4.9-2.7c2.8-.2,4.3,1.4,4.3,1.4"/>
  </g>
  <g>
    <circle class="st4" cx="68.8" cy="49.9" r="2.5"/>
    <path class="st1" d="M63.3,54s2.6-1.9,5.5-2.2c2.8-.2,5.5,1.3,5.5,1.3"/>
  </g>
</svg>