<?xml version="1.0" encoding="UTF-8"?>
<svg id="Layer_1" xmlns="http://www.w3.org/2000/svg" version="1.1" viewBox="0 0 144.9 111.2">
  <!-- Generator: Adobe Illustrator 29.1.0, SVG Export Plug-In . SVG Version: 2.1.0 Build 142)  -->
  <defs>
    <style>
      .st0 {
        fill: #beb3d2;
      }

      .st1 {
        fill: #97b7a4;
      }

      .st2 {
        fill: #d9af78;
      }

      .st3 {
        fill: none;
        stroke: #55348c;
        stroke-linejoin: round;
        stroke-width: 1.4px;
      }

      .st4 {
        fill: #603b95;
      }

      .st5 {
        fill: #f3cc94;
      }
    </style>
  </defs>
  <g>
    <circle class="st1" cx="121" cy="83.9" r="11.1"/>
    <circle class="st1" cx="110.3" cy="89.6" r="14.9"/>
    <circle class="st1" cx="86.3" cy="89.6" r="14.9"/>
    <circle class="st1" cx="130.9" cy="90.6" r="14"/>
    <circle class="st1" cx="98.9" cy="77.7" r="21"/>
  </g>
  <path class="st2" d="M42.8,102.8l.7-8.3s-12.3-17.8-12-22.5,4.8-8,4.8-8l18.1,8.5-11.5,30.3Z"/>
  <g>
    <circle class="st0" cx="62.5" cy="30.6" r="28.3"/>
    <circle class="st0" cx="95.4" cy="21.4" r="21.4"/>
    <circle class="st0" cx="86.4" cy="49.1" r="32.6"/>
    <circle class="st0" cx="51.5" cy="56" r="17.3"/>
  </g>
  <g>
    <rect class="st5" x="47.4" y="69.3" width="16.6" height="42.7" rx="8.3" ry="8.3" transform="translate(35.1 -13.7) rotate(20.4)"/>
    <rect class="st5" x="66.1" y="66.5" width="16.6" height="36.4" rx="8.3" ry="8.3" transform="translate(34.2 -20.6) rotate(20.4)"/>
    <rect class="st5" x="83.2" y="61.9" width="14.4" height="33.5" rx="7.2" ry="7.2" transform="translate(33.1 -26.6) rotate(20.4)"/>
    <rect class="st5" x="98.9" y="60.8" width="12.1" height="27.8" rx="6" ry="6" transform="translate(32.6 -31.9) rotate(20.4)"/>
    <path class="st3" d="M56.6,73.3s-4.6,8.6,1.6,10.9,7.9-7.5,7.9-7.5"/>
    <path class="st3" d="M74,70.4s-4.6,8.6,1.6,10.9,7.9-7.5,7.9-7.5"/>
    <path class="st3" d="M91,66s-3.5,6.6,1.2,8.4c4.8,1.8,6.1-5.8,6.1-5.8"/>
    <path class="st3" d="M105.4,64s-3,5.6,1,7.1,5.2-4.9,5.2-4.9"/>
  </g>
  <g>
    <circle class="st1" cx="48.6" cy="91.2" r="6.1"/>
    <circle class="st1" cx="36.2" cy="87" r="10.4"/>
    <circle class="st1" cx="24.4" cy="80.4" r="10.9"/>
    <circle class="st1" cx="9.2" cy="86.9" r="9.2"/>
    <circle class="st1" cx="21" cy="87.8" r="9.2"/>
  </g>
  <path class="st4" d="M66.4,57.2c-1,0-1.9-.4-2.5-1.3-1-1.4-.7-3.3.7-4.3l9.5-6.8c0,0,0,0,0-.2v-16.6c0-1.7,1.4-3.1,3.1-3.1s3.1,1.4,3.1,3.1v16.6c0,2-1,4-2.6,5.2l-9.5,6.8c-.5.4-1.2.6-1.8.6Z"/>
</svg>