<?xml version="1.0" encoding="UTF-8"?>
<svg id="Layer_1" xmlns="http://www.w3.org/2000/svg" version="1.1" viewBox="0 0 280.3 121.7">
  <!-- Generator: Adobe Illustrator 29.1.0, SVG Export Plug-In . SVG Version: 2.1.0 Build 142)  -->
  <defs>
    <style>
      .st0 {
        stroke-width: 3px;
      }

      .st0, .st1 {
        fill: none;
        stroke: #55348c;
        stroke-linejoin: round;
      }

      .st1 {
        stroke-width: 3.1px;
      }

      .st2 {
        fill: #beb3d2;
      }

      .st3 {
        fill: #55348c;
      }

      .st4 {
        fill: #97b7a4;
      }

      .st5 {
        fill: #f3cc94;
      }
    </style>
  </defs>
  <g>
    <g>
      <circle class="st2" cx="229.7" cy="58" r="40"/>
      <path class="st1" d="M204.5,50.7s3.1,16.6,16.4,18.6,20.1-3.6,28.4-20"/>
      <circle class="st3" cx="212.7" cy="44.2" r="2.6"/>
      <circle class="st3" cx="236.7" cy="43.5" r="2.6"/>
      <path class="st1" d="M227.1,38.3c.8,8.5-6.3,11.4-6.3,11.4,0,0,3.2,3.2,6.3,3.2"/>
      <path class="st1" d="M236.7,6.8s-2,17.5,8,26.3c10.1,8.8,26.1,12.6,26.1,12.6"/>
      <path class="st1" d="M229.7,11.6s-9.4,6.1-12.3,18.4"/>
      <path class="st1" d="M222.4,10.9s-9.8,6.7-13,19.1"/>
      <path class="st1" d="M247.1,43.5s.2,6.3,5.9,9.4"/>
    </g>
    <g>
      <path class="st3" d="M250.6,121.7c-6.2,0-11.6-11.2-20.7-11.2s-16.5,11.2-20.8,11.2-4.5-7-4.5-10.3.3-6,.5-8.9c0-1,1.2-1.6,2.1-1,3.6,2.5,12.4,4.2,22.7,4.2s19.1-1.7,22.7-4.2,2,0,2.1,1c.4,6.4.6,19.2-4,19.2Z"/>
      <path class="st3" d="M223.6,121.7c-1,0-1.6-1.2-.8-2,1.7-1.7,4.3-3.8,6.9-3.8s5.7,2.1,7.4,3.8c.7.7.2,2-.8,2h-12.6Z"/>
    </g>
    <path class="st1" d="M245.4,11.6c9.4-1.5,40.4,12.4,29.8,46.4-9.7,31.2,4,44,4,44"/>
  </g>
  <g>
    <g>
      <circle class="st4" cx="39.6" cy="59.1" r="39.6"/>
      <path class="st0" d="M13.3,59.4s10.1,9,22.3,10.3c15.4,1.7,22.5-5.9,27.1-9.3"/>
      <polyline class="st0" points="38.2 42.9 40.2 56 34.5 56"/>
      <circle class="st3" cx="23.9" cy="44.9" r="2.5"/>
      <circle class="st3" cx="53.5" cy="44.9" r="2.5"/>
      <g>
        <path class="st3" d="M60.3,121.7c-6.2,0-11.5-11.1-20.5-11.1s-16.4,11.1-20.6,11.1-4.4-6.9-4.4-10.2.3-5.9.5-8.8c0-1,1.2-1.5,2.1-1,3.6,2.4,12.3,4.2,22.5,4.2s18.9-1.7,22.5-4.1c.8-.6,2,0,2.1,1,.4,6.3.6,19-4,19Z"/>
        <path class="st3" d="M33.6,121.7c-1,0-1.5-1.2-.8-2,1.6-1.7,4.3-3.8,6.8-3.8s5.6,2.1,7.3,3.8c.7.7.2,2-.8,2h-12.5Z"/>
      </g>
    </g>
    <g>
      <circle class="st0" cx="23.8" cy="45.1" r="6.8"/>
      <circle class="st0" cx="53.4" cy="45.1" r="6.8"/>
      <path class="st0" d="M30.6,45.1s9.3-4.6,15.9,0"/>
    </g>
    <path class="st0" d="M13.6,29.9s8.2-11.4,13.2-11.1c5,.4,2.1,13.9,9.3,12.8,7.1-1.1,12.5-11.1,18.2-10,5.7,1.1,9.3,7.5,9.3,7.5"/>
  </g>
  <g>
    <g>
      <circle class="st5" cx="136.8" cy="56.5" r="39.6"/>
      <polyline class="st0" points="135.8 46.5 132 54.6 134.9 57.2"/>
      <circle class="st3" cx="120" cy="49.8" r="2.5"/>
      <circle class="st3" cx="151.4" cy="49" r="2.5"/>
      <path class="st0" d="M109.2,49.8c-3,0-13.4,0-17.2-3.2-3.8-3.2-10.2-9.4-4.2-19.4,6.1-10,18.5-10.1,23.5-8.6,5,1.5,9.5,5.2,8.4,8.3-1.1,3.1-9.4,1.8-4.6-9,4.8-10.8,18.7-16.9,25.8-16.4,7.1.5,13.3,4.8,14.2,10.3,1,5.9.4,9.8.4,9.8,0,0,8.4-9.4,18.5-8.6,10.1.8,10.8,11.3,10.1,15.5-1.3,7.4-6.5,14.9-6.5,14.9"/>
      <path class="st0" d="M115.1,54.6s2.1-2.5,4.9-2.7c2.8-.2,4.3,1.4,4.3,1.4"/>
      <path class="st0" d="M145.9,53.2s2.6-1.9,5.5-2.2c2.8-.2,5.5,1.3,5.5,1.3"/>
      <path class="st0" d="M126.8,57.2s.5,18.8,6.3,18.8,7.7-16.8,7.7-16.8"/>
      <path class="st0" d="M128.7,22.4s-1.4,8.9-8.6,13.8"/>
      <path class="st0" d="M132,23.6s-1.3,9.5-5.2,11.3"/>
      <path class="st0" d="M138.7,23.1s-2,9.3-6.7,11.3"/>
    </g>
    <g>
      <path class="st3" d="M158,121.7c-6.2,0-11.5-11.1-20.5-11.1s-16.4,11.1-20.6,11.1-4.4-6.9-4.4-10.2.3-5.9.5-8.8c0-1,1.2-1.5,2.1-1,3.6,2.4,12.3,4.2,22.5,4.2s18.9-1.7,22.5-4.1c.8-.6,2,0,2.1,1,.4,6.3.6,19-4,19Z"/>
      <path class="st3" d="M131.3,121.7c-1,0-1.5-1.2-.8-2,1.6-1.7,4.3-3.8,6.8-3.8s5.6,2.1,7.3,3.8c.7.7.2,2-.8,2h-12.5Z"/>
    </g>
  </g>
</svg>