<?xml version="1.0" encoding="UTF-8"?>
<svg id="Layer_1" xmlns="http://www.w3.org/2000/svg" version="1.1" viewBox="0 0 85.5 94.1">
  <!-- Generator: Adobe Illustrator 29.1.0, SVG Export Plug-In . SVG Version: 2.1.0 Build 142)  -->
  <defs>
    <style>
      .st0 {
        fill: #55348c;
      }
    </style>
  </defs>
  <path class="st0" d="M84.7,56.4c-.3-1.5-1.3-2.7-2.6-3.2l-5.1-2c0-1.4,0-2.8,0-4.2,0-26.3-4.2-40.3-4.7-41.8-.5-1.5-1.7-2.6-3.3-2.9-5.8-1.1-15-2.3-26.2-2.3C21.8,0,7.9,4.3,7.3,4.5c-1.3.4-2.3,1.4-2.8,2.7-.2.6-4.5,13.8-4.5,39.8s4.3,39.3,4.5,39.8c.4,1.3,1.5,2.3,2.8,2.7.6.2,14.5,4.5,35.5,4.5s35.5-4.4,36.1-4.6c1-.3,1.9-1,2.4-1.9.4-.6,3.6-6.1,4.2-16.9.4-6.5-.2-11.4-.7-14.3h0ZM12,82c-1.1-4.5-3.5-16.3-3.5-35s2.4-30.5,3.5-35c4.5-1.1,15.8-3.5,30.7-3.5s3,0,4.5.1c.9,3.3,4,16,4,38.4s-3.1,35.1-4,38.4c-1.5,0-3,0-4.5,0-14.9,0-26.2-2.4-30.7-3.5ZM76.9,70.3c-.3,5.8-1.5,9.7-2.3,11.6-3,.8-9.6,2.2-18.3,3,1.4-6,3.6-18.6,3.6-37.8s-2.2-31.8-3.6-37.8c3.2.3,6.1.7,8.6,1.1,1.2,4.9,3.6,17.3,3.6,36.8s0,4.7-.1,6.9c0,1.8,1,3.4,2.7,4.1l5.6,2.2c.3,2.4.5,5.8.3,10h0ZM38.5,42.8c0,2.4-1.9,4.3-4.3,4.3h-8.6c-2.4,0-4.3-1.9-4.3-4.3s1.9-4.3,4.3-4.3h8.6c2.4,0,4.3,1.9,4.3,4.3ZM42.8,25.7c0,2.4-1.9,4.3-4.3,4.3h-17.1c-2.4,0-4.3-1.9-4.3-4.3s1.9-4.3,4.3-4.3h17.1c2.4,0,4.3,1.9,4.3,4.3Z"/>
</svg>