<?xml version="1.0" encoding="UTF-8"?>
<svg id="Layer_1" xmlns="http://www.w3.org/2000/svg" version="1.1" viewBox="0 0 114.1 100.8">
  <!-- Generator: Adobe Illustrator 29.1.0, SVG Export Plug-In . SVG Version: 2.1.0 Build 142)  -->
  <defs>
    <style>
      .st0 {
        fill: #55348c;
      }
    </style>
  </defs>
  <path class="st0" d="M56.7,63c-10.1,0-18.4-8.8-18.4-19.6s4.7-15.5,11.9-24c-2.3-2-4.8-3.9-7.4-5.4-8.5-4.9-16.4-5.3-23.3-1.2-15.9,9.4-6.6,37.1-6.5,37.3.9,2.6-.5,5.5-3.1,6.4-2.6.9-5.5-.5-6.4-3.1-.5-1.5-12.1-35.8,10.9-49.3,10-5.9,21.9-5.5,33.4,1.1,3.3,1.9,6.5,4.3,9.5,6.9,2.4-2.1,5-4,7.7-5.7,11.2-6.9,22.6-7.7,32.8-2.5,21.6,11.1,17.5,37.6,12.2,50.1-1.1,2.6-4,3.8-6.6,2.7-2.6-1.1-3.8-4-2.7-6.6,0,0,3-7.4,3.4-15.9.4-10.4-3.2-17.3-10.9-21.3-7-3.6-14.7-2.9-22.9,2.1-2.1,1.3-4.1,2.8-5.9,4.4,7.1,8.6,11.8,18.5,11.8,26.5s-6.6,17-19.4,17ZM57.2,26.8c-5.4,6.6-8.8,13.5-8.8,16.6,0,5.2,3.7,9.5,8.3,9.5s9.3-2.7,9.3-6.9-3.4-12.4-8.7-19.2Z"/>
  <path class="st0" d="M56.7,100.8c-33,0-43.5-27.4-43.9-28.6-1-2.6.4-5.5,3-6.5,2.6-1,5.5.4,6.5,3,.3.9,8.6,22,34.5,22s35.7-21.4,36.1-22.3c1.1-2.5,4.1-3.7,6.6-2.6,2.6,1.1,3.7,4.1,2.6,6.6-.5,1.2-12.6,28.4-45.4,28.4Z"/>
</svg>