<?xml version="1.0" encoding="UTF-8"?>
<svg id="Layer_1" xmlns="http://www.w3.org/2000/svg" version="1.1" viewBox="0 0 104.1 86.5">
  <!-- Generator: Adobe Illustrator 29.1.0, SVG Export Plug-In . SVG Version: 2.1.0 Build 142)  -->
  <defs>
    <style>
      .st0 {
        fill: #55348c;
      }
    </style>
  </defs>
  <path class="st0" d="M51.6,54.9c-4.4,0-8.8-1-12.7-3L6.1,35.5C2.2,33.6-.1,29.9,0,26c.1-4,2.7-7.6,6.8-9.3L40.4,2.3c7.1-3,15.3-3.1,22.4,0l34.1,14.4c4.1,1.7,6.7,5.3,6.8,9.3.1,4-2.2,7.7-6.2,9.6h0l-33.3,16.4c-3.9,1.9-8.3,2.9-12.6,2.9ZM51.6,9.4c-2.6,0-5.2.5-7.6,1.5L10.5,25.3c-.8.3-1,.7-1,.9,0,.2.3.6.9.9l32.8,16.4c5.3,2.6,11.7,2.7,17,0l33.3-16.4c.6-.3.9-.7.9-.9,0-.2-.3-.6-1.1-.9l-34.1-14.4c-2.4-1-4.9-1.5-7.5-1.5ZM95.5,31.3h0,0Z"/>
  <path class="st0" d="M99,67.4c-2.8,0-5.1-2.3-5.1-5.1V27.7c0-2.8,2.3-5.1,5.1-5.1s5.1,2.3,5.1,5.1v34.6c0,2.8-2.3,5.1-5.1,5.1Z"/>
  <path class="st0" d="M51.8,86.5c-22.1,0-32-8.4-32.5-8.8-1-.9-1.6-2.2-1.6-3.6v-35.7c0-2.6,2.1-4.7,4.7-4.7s4.7,2.1,4.7,4.7v33.2c3.2,1.8,11,5.4,24.6,5.4s21.4-3.1,24.8-4.8v-34c0-2.6,2.1-4.7,4.7-4.7s4.7,2.1,4.7,4.7v36.7c0,1.5-.7,2.9-1.9,3.8-.4.3-10.5,7.7-32.4,7.7Z"/>
</svg>