<?xml version="1.0" encoding="UTF-8"?>
<svg id="Layer_1" xmlns="http://www.w3.org/2000/svg" version="1.1" viewBox="0 0 97.5 97">
  <!-- Generator: Adobe Illustrator 29.1.0, SVG Export Plug-In . SVG Version: 2.1.0 Build 142)  -->
  <defs>
    <style>
      .st0 {
        fill: #55348c;
      }
    </style>
  </defs>
  <g id="Registration">
    <g>
      <path class="st0" d="M31.8,41.5c0,2.2,1.8,3.9,3.9,3.9h20.7c2.2,0,3.9-1.8,3.9-3.9s-1.8-3.9-3.9-3.9h-20.7c-2.2,0-3.9,1.8-3.9,3.9Z"/>
      <path class="st0" d="M35.7,51.2c-2.2,0-3.9,1.8-3.9,3.9s1.8,3.9,3.9,3.9h14.2c2.2,0,3.9-1.8,3.9-3.9s-1.8-3.9-3.9-3.9h-14.2Z"/>
      <path class="st0" d="M92,75.1h-6.8v-25.9c0-2.2-1.8-3.9-3.9-3.9s-3.9,1.8-3.9,3.9v25.9h-41.2c-3,0-5.5,2.5-5.5,5.5v4.4c0,1.5-.8,3-2,3.7-.5.3-1,.4-1.6.4-1,0-1.9-.3-2.7-1-.8-.7-1.2-1.7-1.2-2.8V24.2c0-1.3-.2-2.6-.6-3.8h25.2c2.2,0,3.9-1.8,3.9-3.9s-1.8-3.9-3.9-3.9H11.3c-6.3.2-11.3,5.3-11.3,11.6v4.8c0,3,2.5,5.5,5.5,5.5h9.8v50.9c0,3.3,1.4,6.4,3.8,8.6,2.1,1.9,4.8,3,7.6,3h59.1c6.4,0,11.6-5.2,11.6-11.6v-4.8c0-3-2.5-5.5-5.5-5.5ZM89.7,82.9v2.5c0,2.1-1.7,3.8-3.8,3.8h-48c.7-2,.7-4.2.7-6.3h51.2ZM15.4,24.2v2.5h-7.5v-2.5c0-2.1,1.7-3.8,3.8-3.8s3.8,1.7,3.8,3.8Z"/>
    </g>
    <path class="st0" d="M76.4,0c-11.4,0-20.6,9.2-20.6,20.6s9.2,20.6,20.6,20.6,20.6-9.2,20.6-20.6S87.8,0,76.4,0ZM87.3,19.4l-12,9.7c-.7.6-1.6.9-2.5.9s-.3,0-.5,0c-1.1-.1-2-.7-2.7-1.5l-4.7-6c-1.4-1.7-1.1-4.3.7-5.7,1.8-1.4,4.3-1.1,5.7.7l2.2,2.8,8.8-7.1c1.7-1.4,4.3-1.1,5.7.6,1.4,1.7,1.1,4.3-.6,5.7Z"/>
  </g>
</svg>