<?xml version="1.0" encoding="UTF-8"?>
<svg id="Layer_1" xmlns="http://www.w3.org/2000/svg" version="1.1" viewBox="0 0 105.1 94.1">
  <!-- Generator: Adobe Illustrator 29.1.0, SVG Export Plug-In . SVG Version: 2.1.0 Build 142)  -->
  <defs>
    <style>
      .st0 {
        fill: #55348c;
      }
    </style>
  </defs>
  <path class="st0" d="M102.1,8.4c-.3-1.5-1.3-2.8-2.8-3.5C98.9,4.7,87.9,0,75,0s-18.1,4.6-22.4,7.4c-4.3-2.8-12.8-7.4-22.4-7.4S6.2,4.7,5.8,4.9c-1.4.6-2.5,1.9-2.8,3.5-.1.6-3,15.7-3,35.7s.9,21.2,1.7,27.3c.9,6.8,5.9,12.4,12.6,13.9l37.2,8.6c.4,0,.7.1,1.1.1s.7,0,1.1-.1h0l37.2-8.6c6.7-1.5,11.7-7.1,12.6-13.9.8-6.2,1.7-15.9,1.7-27.3,0-20.1-2.9-35.1-3-35.7h0ZM11.2,70.2c-.8-5.9-1.6-15.2-1.6-26.1s1.6-26.3,2.4-31.3c3.5-1.2,10.5-3.2,18.2-3.2s14.5,4,17.7,6.1v67.6l-31.4-7.2c-2.8-.6-4.9-3-5.2-5.8h0ZM93.9,70.2c-.4,2.8-2.5,5.2-5.2,5.8l-31.4,7.2V15.7c3.2-2.1,10.2-6.1,17.7-6.1s14.7,2,18.2,3.3c.8,5,2.4,16.9,2.4,31.3s-.9,20.2-1.6,26.1h0Z"/>
</svg>