<?xml version="1.0" encoding="UTF-8"?>
<svg id="Layer_1" xmlns="http://www.w3.org/2000/svg" version="1.1" viewBox="0 0 58.8 77.4">
  <!-- Generator: Adobe Illustrator 29.1.0, SVG Export Plug-In . SVG Version: 2.1.0 Build 142)  -->
  <defs>
    <style>
      .st0 {
        fill: none;
        stroke: #55348c;
        stroke-linejoin: round;
        stroke-width: 2.3px;
      }

      .st1 {
        fill: #55348c;
      }

      .st2 {
        fill: #97b7a4;
      }
    </style>
  </defs>
  <g>
    <circle class="st2" cx="29.4" cy="31" r="29.4"/>
    <path class="st0" d="M9.9,31.2s7.5,6.7,16.5,7.7,16.7-4.4,20.1-6.9"/>
    <polyline class="st0" points="28.4 18.9 29.8 28.7 25.6 28.7"/>
    <circle class="st1" cx="17.7" cy="20.5" r="1.9"/>
    <circle class="st1" cx="39.7" cy="20.5" r="1.9"/>
    <g>
      <path class="st1" d="M44.8,77.4c-4.6,0-8.6-8.3-15.2-8.3s-12.2,8.3-15.3,8.3-3.3-5.1-3.3-7.6.2-4.4.4-6.6c0-.7.9-1.1,1.5-.7,2.7,1.8,9.1,3.1,16.7,3.1s14-1.3,16.7-3.1c.6-.4,1.5,0,1.5.7.3,4.7.5,14.1-3,14.1Z"/>
      <path class="st1" d="M25,77.4c-.8,0-1.1-.9-.6-1.5,1.2-1.2,3.2-2.8,5.1-2.8s4.2,1.6,5.4,2.8c.6.5.2,1.5-.6,1.5h-9.3Z"/>
    </g>
  </g>
  <g>
    <circle class="st0" cx="17.7" cy="20.6" r="5.1"/>
    <circle class="st0" cx="39.6" cy="20.6" r="5.1"/>
    <path class="st0" d="M22.7,20.6s6.9-3.4,11.8,0"/>
  </g>
  <path class="st0" d="M10.1,9.3S16.2.9,19.9,1.1s1.6,10.3,6.9,9.5,9.3-8.2,13.5-7.4,6.9,5.6,6.9,5.6"/>
</svg>