<?xml version="1.0" encoding="UTF-8"?>
<svg id="Layer_1" xmlns="http://www.w3.org/2000/svg" version="1.1" viewBox="0 0 142.9 90.3">
  <!-- Generator: Adobe Illustrator 29.1.0, SVG Export Plug-In . SVG Version: 2.1.0 Build 142)  -->
  <defs>
    <style>
      .st0 {
        fill: none;
        stroke: #55348c;
        stroke-linejoin: round;
        stroke-width: 2.3px;
      }

      .st1 {
        fill: #55348c;
      }

      .st2 {
        fill: #f3cc94;
      }
    </style>
  </defs>
  <g>
    <g>
      <circle class="st2" cx="106.4" cy="42" r="29.4"/>
      <polyline class="st0" points="105.7 34.5 102.8 40.5 105 42.5"/>
      <circle class="st1" cx="94" cy="37" r="1.9"/>
      <circle class="st1" cx="117.2" cy="36.4" r="1.9"/>
      <path class="st0" d="M85.9,37c-2.2,0-10,0-12.8-2.4-2.8-2.4-7.6-7-3.1-14.4,4.5-7.4,13.8-7.5,17.5-6.4,3.7,1.1,7.1,3.9,6.3,6.2-.8,2.3-7,1.3-3.4-6.7,3.5-8,13.9-12.5,19.2-12.2,5.3.4,9.9,3.6,10.5,7.6.7,4.4.3,7.3.3,7.3,0,0,6.3-7,13.8-6.4,7.5.6,8,8.4,7.5,11.5-1,5.5-4.8,11.1-4.8,11.1"/>
      <path class="st0" d="M90.3,40.5s1.5-1.9,3.6-2c2.1-.2,3.2,1,3.2,1"/>
      <path class="st0" d="M113.2,39.5s2-1.4,4.1-1.6,4.1,1,4.1,1"/>
      <path class="st0" d="M99,42.5s.4,13.9,4.7,13.9,5.7-12.4,5.7-12.4"/>
      <path class="st0" d="M100.4,16.6s-1,6.6-6.4,10.2"/>
      <path class="st0" d="M102.8,17.5s-.9,7.1-3.9,8.4"/>
      <path class="st0" d="M107.8,17.1s-1.5,6.9-5,8.4"/>
    </g>
    <g>
      <path class="st1" d="M122.1,90.3c-4.6,0-8.6-8.3-15.2-8.3s-12.2,8.3-15.3,8.3-3.3-5.1-3.3-7.6.2-4.4.4-6.6c0-.7.9-1.1,1.5-.7,2.7,1.8,9.1,3.1,16.7,3.1s14-1.3,16.7-3.1c.6-.4,1.5,0,1.5.7.3,4.7.5,14.1-3,14.1Z"/>
      <path class="st1" d="M102.3,90.3c-.8,0-1.1-.9-.6-1.5,1.2-1.2,3.2-2.8,5.1-2.8s4.2,1.6,5.4,2.8c.6.5.2,1.5-.6,1.5h-9.3Z"/>
    </g>
  </g>
  <g>
    <g>
      <circle class="st2" cx="29.4" cy="41.7" r="29.4"/>
      <path class="st0" d="M9.9,41.9s7.4,7.7,16.5,7.7,16.7-4.4,20.1-6.9"/>
      <polyline class="st0" points="28.4 29.6 29.8 39.3 25.6 39.3"/>
      <circle class="st1" cx="17.7" cy="31.1" r="1.9"/>
      <circle class="st1" cx="39.7" cy="31.1" r="1.9"/>
      <line class="st0" x1="26.5" y1="19.2" x2="32.6" y2="7.2"/>
      <line class="st0" x1="35.5" y1="17.2" x2="42.6" y2="6.9"/>
      <line class="st0" x1="16.2" y1="18.2" x2="22.5" y2="5.8"/>
      <g>
        <path class="st1" d="M44.8,88.1c-4.6,0-8.6-8.3-15.2-8.3s-12.2,8.3-15.3,8.3-3.3-5.1-3.3-7.6.2-4.4.4-6.6c0-.7.9-1.1,1.5-.7,2.7,1.8,9.1,3.1,16.7,3.1s14-1.3,16.7-3.1c.6-.4,1.5,0,1.5.7.3,4.7.5,14.1-3,14.1Z"/>
        <path class="st1" d="M25,88.1c-.8,0-1.1-.9-.6-1.5,1.2-1.2,3.2-2.8,5.1-2.8s4.2,1.6,5.4,2.8.2,1.5-.6,1.5h-9.3Z"/>
      </g>
    </g>
    <path class="st0" d="M21.2,43.3c5.4,0,7.5,2.5,7.5,2.5,0,0,4-2.5,7.5-2.5"/>
  </g>
</svg>