<?xml version="1.0" encoding="UTF-8"?>
<svg id="Layer_1" xmlns="http://www.w3.org/2000/svg" version="1.1" viewBox="0 0 135.7 79.9">
  <!-- Generator: Adobe Illustrator 29.1.0, SVG Export Plug-In . SVG Version: 2.1.0 Build 142)  -->
  <defs>
    <style>
      .st0 {
        stroke-width: 2.3px;
      }

      .st0, .st1 {
        fill: none;
        stroke: #55348c;
        stroke-linejoin: round;
      }

      .st1 {
        stroke-width: 2.3px;
      }

      .st2 {
        fill: #55348c;
      }

      .st3 {
        fill: #97b7a4;
      }
    </style>
  </defs>
  <g>
    <g>
      <circle class="st3" cx="36.7" cy="33.1" r="29.4"/>
      <polyline class="st1" points="37.6 17.7 40.9 27.1 36.7 29.6"/>
      <polyline class="st1" points="20.2 24.7 26.3 18.4 30.5 25.4"/>
      <polyline class="st1" points="55.3 25 50.7 18.3 46.1 25"/>
    </g>
    <g>
      <path class="st2" d="M52.1,79.9c-4.6,0-8.6-8.3-15.2-8.3s-12.2,8.3-15.3,8.3-3.3-5.1-3.3-7.6.2-4.4.4-6.6c0-.7.9-1.1,1.5-.7,2.7,1.8,9.1,3.1,16.7,3.1s14-1.3,16.7-3.1c.6-.4,1.5,0,1.5.7.3,4.7.5,14.1-3,14.1Z"/>
      <path class="st2" d="M32.2,79.9c-.8,0-1.1-.9-.6-1.5,1.2-1.2,3.2-2.8,5.1-2.8s4.2,1.6,5.4,2.8c.6.5.2,1.5-.6,1.5h-9.3Z"/>
    </g>
    <path class="st1" d="M33.3,40.5c7.8,1.5,12.8-2.1,12.8-2.1,0,0,2,11.8-9.5,11.7"/>
    <path class="st1" d="M7.9,20.9s-18.7,42.6,6,40.1"/>
    <path class="st1" d="M36.7,9c0-6.8-12.3-10.5-19.3-1.9C12.7,12.9,8.2,24.3,1.5,25"/>
    <path class="st0" d="M40.7,1.5s6.9,4.5,9.1,13.5"/>
    <path class="st0" d="M46,.9s7.2,4.9,9.6,14.1"/>
  </g>
  <g>
    <g>
      <circle class="st3" cx="106.3" cy="33.1" r="29.4"/>
      <polyline class="st1" points="107.3 17.7 110.6 27.1 106.3 29.6"/>
      <polyline class="st1" points="89.9 24.7 95.9 18.4 100.1 25.4"/>
      <polyline class="st1" points="124.9 25 120.3 18.3 115.7 25"/>
    </g>
    <g>
      <path class="st2" d="M121.7,79.9c-4.6,0-8.6-8.3-15.2-8.3s-12.2,8.3-15.3,8.3-3.3-5.1-3.3-7.6.2-4.4.4-6.6c0-.7.9-1.1,1.5-.7,2.7,1.8,9.1,3.1,16.7,3.1s14-1.3,16.7-3.1c.6-.4,1.5,0,1.5.7.3,4.7.5,14.1-3,14.1Z"/>
      <path class="st2" d="M101.9,79.9c-.8,0-1.1-.9-.6-1.5,1.2-1.2,3.2-2.8,5.1-2.8s4.2,1.6,5.4,2.8c.6.5.2,1.5-.6,1.5h-9.3Z"/>
    </g>
    <path class="st1" d="M103,40.5c7.8,1.5,12.8-2.1,12.8-2.1,0,0,2,11.8-9.5,11.7"/>
    <path class="st1" d="M106.3,9c0-6.8-12.3-10.5-19.3-1.9-4.7,5.7-9.2,17.2-15.9,17.9"/>
    <path class="st0" d="M110.3,1.5s6.9,4.5,9.1,13.5"/>
    <path class="st0" d="M115.6.9s7.2,4.9,9.6,14.1"/>
  </g>
</svg>