<?xml version="1.0" encoding="UTF-8"?>
<svg id="Layer_1" xmlns="http://www.w3.org/2000/svg" version="1.1" viewBox="0 0 147.1 56.9">
  <!-- Generator: Adobe Illustrator 29.1.0, SVG Export Plug-In . SVG Version: 2.1.0 Build 142)  -->
  <defs>
    <style>
      .st0 {
        fill: #beb3d2;
      }

      .st1 {
        fill: #55348c;
      }

      .st2 {
        fill: #97b7a4;
      }

      .st3 {
        stroke-width: 1.6px;
      }

      .st3, .st4, .st5 {
        fill: none;
        stroke: #55348c;
        stroke-linejoin: round;
      }

      .st4 {
        stroke-width: 1.6px;
      }

      .st5 {
        stroke-width: 1.5px;
      }

      .st6 {
        fill: #f3cc94;
      }
    </style>
  </defs>
  <g>
    <g>
      <circle class="st0" cx="20.9" cy="23.6" r="20.9"/>
      <polyline class="st3" points="21.6 14.6 18.5 15.7 21.3 18.2"/>
      <path class="st3" d="M9.1,22.7l22.9-.7s.7,17.5-10.4,17.5-12.4-16.9-12.4-16.9Z"/>
      <path class="st3" d="M18.5.5s-.5,4.2-4.9,5.8"/>
      <path class="st3" d="M21.9,1.3s.8,3.5-3.8,5.8"/>
      <path class="st3" d="M24.5,1s1.2,3.9-2,6.5"/>
      <circle class="st1" cx="12.2" cy="15.9" r="1.3"/>
      <circle class="st1" cx="27.9" cy="15.5" r="1.3"/>
    </g>
    <g>
      <path class="st1" d="M31.4,56.8c-3.2,0-6.1-5.9-10.8-5.9s-8.6,5.9-10.9,5.9-2.3-3.6-2.3-5.4.2-3.1.3-4.7c0-.5.6-.8,1.1-.5,1.9,1.3,6.5,2.2,11.8,2.2s9.9-.9,11.8-2.2,1.1,0,1.1.5c.2,3.3.3,10-2.1,10Z"/>
      <path class="st1" d="M17.3,56.8c-.5,0-.8-.6-.4-1,.9-.9,2.2-2,3.6-2s3,1.1,3.8,2,.1,1-.4,1h-6.6Z"/>
    </g>
  </g>
  <g>
    <circle class="st2" cx="72.3" cy="24.8" r="20.1"/>
    <path class="st5" d="M67.9,29.6s.8,3.8,3.4,3.8c2.7,0,3.7-1.9,4.5-3.8"/>
    <circle class="st1" cx="64.2" cy="23.3" r="1.3"/>
    <circle class="st1" cx="80.3" cy="23.5" r="1.3"/>
    <polyline class="st5" points="72.7 22.7 70.5 26.6 73.2 27.5"/>
    <path class="st5" d="M66.6,7.5s3.7-3.6,8.1-1c4.1,2.5,3.2,10.8-.4,13.2s-6.2-1-4.4-5.4,6.9-7.4,13.1-4.4"/>
    <path class="st1" d="M82.9,56.8c-3.1,0-5.9-5.7-10.4-5.7s-8.3,5.7-10.5,5.7-2.3-3.5-2.3-5.2.2-3,.3-4.5.6-.8,1-.5c1.8,1.2,6.3,2.1,11.4,2.1s9.6-.9,11.4-2.1c.4-.3,1,0,1,.5.2,3.2.3,9.7-2,9.7Z"/>
    <path class="st1" d="M69.3,56.8c-.5,0-.8-.6-.4-1,.8-.8,2.2-1.9,3.5-1.9s2.8,1.1,3.7,1.9c.4.4.1,1-.4,1h-6.4Z"/>
  </g>
  <g>
    <path class="st6" d="M147.1,29.7c0-2-.7-3.9-1.7-5.4-.2-11.1-9.2-20-20.4-20s-19.7,8.5-20.3,19.1c-1.5,1.7-2.4,3.9-2.4,6.3,0,4.8,3.6,8.8,8.3,9.3,3.7,3.7,8.8,6,14.4,6s10.8-2.3,14.5-6.1c4.3-.8,7.6-4.6,7.6-9.2Z"/>
    <polyline class="st4" points="125.5 19.3 120.2 23.8 124.7 25.8"/>
    <polyline class="st4" points="136.3 20.7 132.4 22.9 130.2 20"/>
    <path class="st4" d="M127.6,30.5s-2.5,3.3-3.5,4.3c-.9.9-2.5.6-3-.5-.8-1.6-2.7-6.7-2.7-6.7"/>
    <g>
      <path class="st1" d="M135.3,56.9c-3.2,0-5.9-5.7-10.6-5.7s-8.4,5.7-10.6,5.7-2.3-3.5-2.3-5.3.2-3.1.3-4.5.6-.8,1.1-.5c1.8,1.3,6.3,2.1,11.6,2.1s9.7-.9,11.6-2.1c.4-.3,1,0,1.1.5.2,3.3.3,9.8-2.1,9.8Z"/>
      <path class="st1" d="M121.6,56.9c-.5,0-.8-.6-.4-1,.8-.9,2.2-2,3.5-2s2.9,1.1,3.8,1.9.1,1-.4,1h-6.4Z"/>
    </g>
    <circle class="st1" cx="117.2" cy="20" r="1.3"/>
    <path class="st4" d="M114.7,10.5c.9-2.2,3.7-6.4,7.9-8.5,4.3-2.1,7.1-1.5,7.6,1.8.5,3.3-2.3,7.2-5.5,8.3-3.3,1.1.2-4.4,2.3-6,2.1-1.7,5.6-4.1,9.5-3.3,3.9.8,4.5,4.5,3.6,6.8-.8,1.9-3.1,3.5-5.7,3.5s-2.2-2.2.9-3.9c2.9-1.6,6.6-1.7,8.4-.6s1.5,6.5-3.1,8.2"/>
  </g>
</svg>