<?xml version="1.0" encoding="UTF-8"?>
<svg id="Layer_1" xmlns="http://www.w3.org/2000/svg" version="1.1" viewBox="0 0 138.7 84.8">
  <!-- Generator: Adobe Illustrator 29.1.0, SVG Export Plug-In . SVG Version: 2.1.0 Build 142)  -->
  <defs>
    <style>
      .st0 {
        fill: none;
        stroke: #55348c;
        stroke-linejoin: round;
        stroke-width: 2.3px;
      }

      .st1 {
        fill: #beb3d2;
      }

      .st2 {
        fill: #55348c;
      }
    </style>
  </defs>
  <g>
    <g>
      <circle class="st1" cx="101.4" cy="37.9" r="29.5"/>
      <path class="st0" d="M82.9,32.5s2.3,12.2,12,13.7c7.6,1.1,14.8-2.7,20.9-14.7"/>
      <circle class="st2" cx="88.9" cy="27.7" r="1.9"/>
      <circle class="st2" cx="106.6" cy="27.2" r="1.9"/>
      <path class="st0" d="M99.5,23.4c.6,6.2-4.6,8.4-4.6,8.4,0,0,2.3,2.3,4.7,2.3"/>
      <path class="st0" d="M106.6.1s-1.5,12.9,5.9,19.4c7.4,6.5,19.2,9.3,19.2,9.3"/>
      <path class="st0" d="M101.4,3.7s-6.9,4.5-9.1,13.5"/>
      <path class="st0" d="M96.1,3.2s-7.2,4.9-9.6,14.1"/>
      <path class="st0" d="M114.2,27.2s.2,4.6,4.3,6.9"/>
    </g>
    <g>
      <path class="st2" d="M116.8,84.8c-4.6,0-8.6-8.3-15.3-8.3s-12.2,8.3-15.3,8.3-3.3-5.1-3.3-7.6.2-4.4.4-6.6c0-.8.9-1.1,1.5-.7,2.7,1.8,9.2,3.1,16.7,3.1s14-1.3,16.7-3.1c.6-.4,1.5,0,1.5.7.3,4.7.5,14.2-3,14.2Z"/>
      <path class="st2" d="M97,84.8c-.8,0-1.1-.9-.6-1.5,1.2-1.2,3.2-2.8,5.1-2.8s4.2,1.6,5.4,2.8c.6.5.2,1.5-.6,1.5h-9.3Z"/>
    </g>
    <path class="st0" d="M113,3.7c6.9-1.1,29.7,9.2,21.9,34.2-7.2,23,3,32.4,3,32.4"/>
  </g>
  <g>
    <g>
      <circle class="st1" cx="30.6" cy="37.9" r="29.5"/>
      <path class="st0" d="M49.1,32.5s-2.3,12.2-12,13.7-14.8-2.7-20.9-14.7"/>
      <circle class="st2" cx="43.1" cy="27.7" r="1.9"/>
      <circle class="st2" cx="25.4" cy="27.2" r="1.9"/>
      <path class="st0" d="M32.4,23.4c-.6,6.2,4.6,8.4,4.6,8.4,0,0-2.3,2.3-4.7,2.3"/>
      <path class="st0" d="M25.4.1s1.5,12.9-5.9,19.4C12.1,26,.3,28.8.3,28.8"/>
      <path class="st0" d="M30.6,3.7s6.9,4.5,9.1,13.5"/>
      <path class="st0" d="M35.9,3.2s7.2,4.9,9.6,14.1"/>
      <path class="st0" d="M17.8,27.2s-.2,4.6-4.3,6.9"/>
      <path class="st0" d="M41.9,50.7s-.4,3.8-2.3,4.4c-1.9.5-2.6-.9-2.6-.9,0,0-3.2,2.9-6.5,1"/>
    </g>
    <g>
      <path class="st2" d="M45.1,84.8c-4.6,0-8.6-8.3-15.3-8.3s-12.2,8.3-15.3,8.3-3.3-5.1-3.3-7.6.2-4.4.4-6.6c0-.8.9-1.1,1.5-.7,2.7,1.8,9.2,3.1,16.7,3.1s14-1.3,16.7-3.1c.6-.4,1.5,0,1.5.7.3,4.7.5,14.2-3,14.2Z"/>
      <path class="st2" d="M25.3,84.8c-.8,0-1.1-.9-.6-1.5,1.2-1.2,3.2-2.8,5.1-2.8s4.2,1.6,5.4,2.8c.6.5.2,1.5-.6,1.5h-9.3Z"/>
    </g>
  </g>
</svg>