<svg width="195" height="193" viewBox="0 0 195 193" fill="none" xmlns="http://www.w3.org/2000/svg">
<g clip-path="url(#clip0_24_2)">
<path d="M39 143.3C40.8 145.1 41.7 147.8 41.7 151.5V164.7C41.7 165.1 41.3 165.5 40.9 165.5H33.9C33.5 165.5 33.1 165.1 33.1 164.7V152.9C33.1 151.2 32.8 149.9 32.1 149.1C31.5 148.3 30.5 147.9 29.4 147.9C28.3 147.9 27.1 148.4 26.3 149.3C25.5 150.2 25.1 151.6 25.1 153.4V164.7C25.1 165.1 24.7 165.5 24.3 165.5H17.3C16.9 165.5 16.5 165.1 16.5 164.7V152.9C16.5 149.6 15.3 147.9 12.8 147.9C10.3 147.9 10.4 148.4 9.6 149.3C8.8 150.2 8.4 151.6 8.4 153.4V164.7C8.4 165.1 8 165.5 7.6 165.5H0.8C0.4 165.5 0 165.1 0 164.7V141.8C0 141.4 0.4 141 0.8 141H7.4C7.8 141 8.2 141.4 8.2 141.8C8.2 142.5 8.9 142.8 9.5 142.4C10.1 142 10.7 141.6 11.5 141.3C12.7 140.8 14.1 140.6 15.6 140.6C17.1 140.6 18.8 140.9 20.2 141.5C21.3 142 22.2 142.7 22.9 143.6C23.6 144.5 23.7 144 24.1 143.6C25 142.7 26 142 27.1 141.5C28.6 140.8 30.2 140.5 31.9 140.5C34.9 140.5 37.3 141.4 39.1 143.2L39 143.3Z" fill="white"/>
<path d="M74.6999 141.6V164.7C74.6999 165.1 74.4 165.4 74 165.4H67.1999C66.7999 165.4 66.5 165.1 66.5 164.7V164.5C66.5 164 65.9 163.6 65.4 164C63.9 165.2 61.8 165.8 59.2 165.8C56.6 165.8 54.9999 165.3 53.0999 164.2C51.2999 163.2 49.7999 161.7 48.7999 159.8C47.6999 157.9 47.2 155.6 47.2 153.1C47.2 150.6 47.6999 148.4 48.7999 146.4C49.8999 144.5 51.2999 143 53.0999 142C54.8999 141 56.9 140.5 59.2 140.5C61.5 140.5 63.4 141 64.9 142.1C66.4 143.2 66 142.1 66 141.6C66 141.2 66.2999 140.9 66.6999 140.9H73.9C74.3 140.9 74.5999 141.2 74.5999 141.6H74.6999ZM64.8 157.5C65.8 156.5 66.1999 155 66.1999 153.2C66.1999 151.4 65.7 150 64.8 149C63.8 148 62.5999 147.5 61.0999 147.5C59.5999 147.5 58.4 148 57.4 149C56.4 150 56 151.4 56 153.2C56 155 56.5 156.5 57.4 157.5C58.4 158.5 59.5999 159.1 61.0999 159.1C62.5999 159.1 63.8 158.6 64.8 157.5Z" fill="white"/>
<path d="M84.4 165.1C82.8 164.7 81.4 164.2 80.3 163.7C79.2 163.2 79.8 163 79.9 162.7L81.8 158.3C82 157.9 82.5 157.7 82.9 157.9C83.8 158.4 84.9 158.8 86.1 159.1C87.6 159.5 89.1999 159.7 90.6999 159.7C92.1999 159.7 93.0999 159.6 93.6999 159.3C94.2999 159 94.6 158.6 94.6 158.1C94.6 157.6 94.2 157.2 93.5 156.9C92.8 156.7 91.7 156.5 90.1 156.2C88.1 156 86.5 155.6 85.1 155.3C83.7 154.9 82.6 154.2 81.6 153.1C80.6 152 80.1 150.6 80.1 148.7C80.1 146.8 80.6 145.7 81.5 144.5C82.4 143.3 83.8 142.3 85.6 141.6C87.4 140.9 89.5 140.5 92 140.5C94.5 140.5 95.5 140.7 97.3 141C98.7 141.3 99.9 141.7 101 142.2C102.1 142.7 101.6 142.9 101.4 143.3L99.5 147.6C99.3 148 98.8 148.2 98.4 148C96.4 147.1 94.4 146.6 92.1 146.6C89.8 146.6 89.8 146.8 89.1 147.1C88.5 147.4 88.1999 147.8 88.1999 148.3C88.1999 148.8 88.4999 149.3 89.1999 149.5C89.8999 149.7 91 150 92.6 150.2C94.6 150.5 96.3 150.8 97.6 151.2C98.9 151.6 100.1 152.3 101.1 153.3C102.1 154.3 102.6 155.8 102.6 157.7C102.6 159.6 102.1 160.6 101.2 161.8C100.3 163 98.9 164 97.1 164.7C95.3 165.4 93.1 165.7 90.5 165.7C87.9 165.7 86.4 165.5 84.5 165L84.4 165.1Z" fill="white"/>
<path d="M112.8 164.2C110.7 163.1 109 161.6 107.8 159.7C106.6 157.8 106 155.6 106 153.2C106 150.8 106.6 148.6 107.8 146.7C109 144.8 110.6 143.3 112.8 142.2C114.9 141.1 117.4 140.6 120.1 140.6C122.8 140.6 125.3 141.2 127.3 142.4C129.1 143.5 130.5 144.9 131.3 146.8C132.1 148.7 131.3 147.5 131 147.7L125.5 150.5C125.2 150.7 124.8 150.5 124.6 150.3C123.5 148.5 122 147.5 120 147.5C118 147.5 117.2 148 116.2 149C115.2 150 114.7 151.4 114.7 153.2C114.7 155 115.2 156.5 116.2 157.5C117.2 158.5 118.5 159.1 120 159.1C121.5 159.1 123.5 158.2 124.6 156.3C125.7 154.4 125.2 155.9 125.5 156.1L131 158.9C131.3 159.1 131.5 159.4 131.3 159.8C130.4 161.6 129.1 163.1 127.3 164.2C125.3 165.4 122.9 166 120.1 166C117.3 166 115 165.5 112.8 164.4V164.2Z" fill="white"/>
<path d="M159.3 143.3C161.1 145.1 162.1 147.8 162.1 151.5V164.7C162.1 165.1 161.7 165.5 161.3 165.5H154.3C153.9 165.5 153.5 165.1 153.5 164.7V152.9C153.5 149.6 152.2 147.9 149.5 147.9C146.8 147.9 146.8 148.4 146 149.3C145.1 150.3 144.7 151.7 144.7 153.6V164.6C144.7 165 144.3 165.4 143.9 165.4H136.9C136.5 165.4 136.1 165 136.1 164.6V132.7C136.1 132.3 136.5 131.9 136.9 131.9H143.9C144.3 131.9 144.7 132.3 144.7 132.7V141.6C144.7 142.2 145.4 142.6 145.9 142.3C146.4 142 147.2 141.5 148 141.3C149.3 140.8 150.6 140.6 152.1 140.6C155.1 140.6 157.6 141.5 159.4 143.3H159.3Z" fill="white"/>
<path d="M185.3 158.8C186 158.5 186.7 158.1 187.4 157.6C188.1 157.1 188.1 157.4 188.3 157.6L191.9 161.4C192.1 161.7 192.2 162.1 191.9 162.3C189.6 164.6 186.3 165.8 182 165.8C177.7 165.8 176.6 165.3 174.5 164.2C172.3 163.1 170.7 161.6 169.5 159.7C168.3 157.8 167.7 155.6 167.7 153.2C167.7 150.8 168.3 148.6 169.5 146.7C170.7 144.8 172.3 143.3 174.3 142.2C176.4 141.1 178.7 140.6 181.2 140.6C183.7 140.6 185.7 141.1 187.7 142.1C189.7 143.1 191.2 144.5 192.4 146.4C193.5 148.1 194.1 150.2 194.1 152.5C194.1 154.8 193.9 153.1 193.6 153.2L177.6 156.3C177.1 156.3 176.9 156.9 177.2 157.3C178.2 158.7 179.9 159.4 182.2 159.4C184.5 159.4 184.4 159.2 185.2 158.9L185.3 158.8ZM177.6 148C176.8 148.7 176.4 149.7 176.1 151C175.8 152.3 176.4 151.9 176.9 151.8L185.1 150.2C185.5 150.2 185.8 149.6 185.6 149.3C185.3 148.6 184.8 148.1 184.2 147.6C183.4 147 182.4 146.7 181.2 146.7C180 146.7 178.5 147.2 177.6 148.1V148Z" fill="white"/>
<path d="M17.3 175.8V191.5C17.3 191.8 17 192.1 16.7 192.1H15.7C15.4 192.1 15.1 191.8 15.1 191.5V190.5C15.1 189.9 14.4 189.7 14 190.1C13.6 190.5 13 191 12.3 191.3C11.2 191.9 9.89998 192.2 8.49998 192.2C7.09998 192.2 5.49998 191.8 4.19998 191.1C2.89998 190.4 1.89998 189.3 1.19998 188C0.499976 186.7 0.0999756 185.2 0.0999756 183.5C0.0999756 181.8 0.499976 180.3 1.19998 179C1.89998 177.7 2.89998 176.7 4.19998 176C5.49998 175.3 6.89998 174.9 8.49998 174.9C10.1 174.9 11.1 175.2 12.2 175.8C12.8 176.1 13.4 176.5 13.9 177C14.4 177.5 14.9 177.1 14.9 176.6V175.7C14.9 175.4 15.2 175.1 15.5 175.1H16.6C16.9 175.1 17.2 175.4 17.2 175.7L17.3 175.8ZM12 189.4C13 188.9 13.7 188.1 14.3 187.1C14.8 186.1 15.1 184.9 15.1 183.7C15.1 182.5 14.8 181.3 14.3 180.3C13.8 179.3 13 178.5 12 178C11 177.5 9.99998 177.2 8.79998 177.2C7.59998 177.2 6.49998 177.5 5.59998 178C4.59998 178.5 3.89998 179.3 3.29998 180.3C2.79998 181.3 2.49998 182.5 2.49998 183.7C2.49998 184.9 2.79998 186.1 3.29998 187.1C3.79998 188.1 4.59998 188.9 5.59998 189.4C6.59998 189.9 7.59998 190.2 8.79998 190.2C9.99998 190.2 11 189.9 12 189.4Z" fill="white"/>
<path d="M28.3 191.2C27 190.5 25.9 189.4 25.2 188.1C24.4 186.8 24.1 185.3 24.1 183.6C24.1 181.9 24.5 180.5 25.2 179.2C26 177.9 27 176.9 28.3 176.1C29.6 175.4 31.1 175 32.8 175C34.5 175 35.6 175.3 36.7 175.9C37.7 176.4 38.5 177 39.1 177.9C39.7 178.8 39.2 178.6 38.9 178.7L38.2 179.2C37.9 179.4 37.6 179.3 37.4 179.1C36.9 178.5 36.3 178 35.6 177.7C34.7 177.3 33.8 177.1 32.8 177.1C31.8 177.1 30.5 177.4 29.5 177.9C28.5 178.4 27.8 179.2 27.2 180.2C26.7 181.2 26.4 182.4 26.4 183.6C26.4 184.8 26.7 186.1 27.2 187.1C27.7 188.1 28.5 188.9 29.5 189.4C30.5 189.9 31.6 190.2 32.8 190.2C34 190.2 34.7 190 35.6 189.6C36.3 189.3 36.9 188.8 37.4 188.2C37.9 187.6 38 187.9 38.2 188.1L38.9 188.6C39.2 188.8 39.3 189.2 39.1 189.4C38.5 190.2 37.7 190.9 36.7 191.4C35.5 192 34.2 192.3 32.8 192.3C31.4 192.3 29.6 191.9 28.3 191.2Z" fill="white"/>
<path d="M61.2 175.8V191.5C61.2 191.8 60.9 192.1 60.6 192.1H59.6C59.3 192.1 59 191.8 59 191.5V190.5C59 189.9 58.3 189.7 57.9 190.1C57.5 190.5 56.9 191 56.2 191.3C55.1 191.9 53.8 192.2 52.4 192.2C51 192.2 49.4 191.8 48.1 191.1C46.8 190.4 45.8 189.3 45.1 188C44.4 186.7 44 185.2 44 183.5C44 181.8 44.4 180.3 45.1 179C45.8 177.7 46.8 176.7 48.1 176C49.4 175.3 50.8 174.9 52.4 174.9C54 174.9 55 175.2 56.1 175.8C56.7 176.1 57.3 176.5 57.8 177C58.3 177.5 58.8 177.1 58.8 176.6V175.7C58.8 175.4 59.1 175.1 59.4 175.1H60.5C60.8 175.1 61.1 175.4 61.1 175.7L61.2 175.8ZM55.9 189.4C56.9 188.9 57.6 188.1 58.2 187.1C58.7 186.1 59 184.9 59 183.7C59 182.5 58.7 181.3 58.2 180.3C57.7 179.3 56.9 178.5 55.9 178C54.9 177.5 53.9 177.2 52.7 177.2C51.5 177.2 50.4 177.5 49.5 178C48.5 178.5 47.8 179.3 47.2 180.3C46.7 181.3 46.4 182.5 46.4 183.7C46.4 184.9 46.7 186.1 47.2 187.1C47.7 188.1 48.5 188.9 49.5 189.4C50.5 189.9 51.5 190.2 52.7 190.2C53.9 190.2 54.9 189.9 55.9 189.4Z" fill="white"/>
<path d="M85.2 169.8V191.5C85.2 191.8 84.9 192.1 84.6 192.1H83.6C83.3 192.1 83 191.8 83 191.5V190.5C83 189.9 82.3 189.7 81.9 190.1C81.5 190.5 80.9 191 80.2 191.3C79.1 191.9 77.8 192.2 76.4 192.2C75 192.2 73.4 191.8 72.1 191.1C70.8 190.4 69.8 189.3 69.1 188C68.4 186.7 68 185.2 68 183.5C68 181.8 68.4 180.3 69.1 179C69.8 177.7 70.8 176.7 72.1 176C73.4 175.3 74.8 174.9 76.4 174.9C78 174.9 79 175.2 80.1 175.8C80.7 176.1 81.3 176.5 81.8 177C82.3 177.5 82.8 177.1 82.8 176.6V169.7C82.8 169.4 83.1 169.1 83.4 169.1H84.5C84.8 169.1 85.1 169.4 85.1 169.7L85.2 169.8ZM79.8 189.4C80.8 188.9 81.5 188.1 82.1 187.1C82.6 186.1 82.9 184.9 82.9 183.7C82.9 182.5 82.6 181.3 82.1 180.3C81.6 179.3 80.8 178.5 79.8 178C78.8 177.5 77.8 177.2 76.6 177.2C75.4 177.2 74.3 177.5 73.4 178C72.4 178.5 71.7 179.3 71.1 180.3C70.6 181.3 70.3 182.5 70.3 183.7C70.3 184.9 70.6 186.1 71.1 187.1C71.6 188.1 72.4 188.9 73.4 189.4C74.4 189.9 75.4 190.2 76.6 190.2C77.8 190.2 78.8 189.9 79.8 189.4Z" fill="white"/>
<path d="M103.8 189.7C104.5 189.4 105.1 189 105.6 188.5C106.1 188 106.2 188.3 106.5 188.5L107 189.1C107.2 189.3 107.2 189.7 107 189.9C106.3 190.6 105.5 191.2 104.6 191.6C103.5 192.1 102.2 192.3 100.9 192.3C99.6 192.3 97.6 191.9 96.3 191.2C94.9 190.5 93.9 189.4 93.1 188.1C92.3 186.8 92 185.3 92 183.7C92 182.1 92.4 180.6 93.1 179.3C93.8 178 94.8 177 96.1 176.2C97.4 175.5 98.8 175.1 100.4 175.1C102 175.1 103.3 175.4 104.5 176.1C105.7 176.8 106.7 177.7 107.4 179C108 180.1 108.4 181.3 108.5 182.6C108.6 183.9 108.3 183.2 108 183.2L95.3 185.7C94.9 185.7 94.7 186.2 94.9 186.6C95.4 187.6 96 188.5 97 189.1C98.1 189.9 99.5 190.3 101 190.3C102.5 190.3 103 190.1 103.9 189.7H103.8ZM97.1 177.8C96.2 178.3 95.4 179.1 94.9 180.1C94.4 181.1 94.1 182.2 94.1 183.5C94.1 184.8 94.1 184.1 94.1 184.2L105.4 182C105.8 182 106 181.6 105.9 181.2C105.6 180.1 105 179.1 104.1 178.4C103 177.5 101.8 177 100.2 177C98.6 177 98 177.3 97 177.8H97.1Z" fill="white"/>
<path d="M141.3 176.8C142.5 178 143.1 179.8 143.1 182.2V191.4C143.1 191.7 142.8 192 142.5 192H141.4C141.1 192 140.8 191.7 140.8 191.4V182.4C140.8 180.6 140.4 179.3 139.5 178.4C138.7 177.5 137.5 177 135.9 177C134.3 177 132.8 177.5 131.7 178.6C130.7 179.7 130.2 181.2 130.2 183.1V191.4C130.2 191.7 129.9 192 129.6 192H128.5C128.2 192 127.9 191.7 127.9 191.4V182.4C127.9 180.6 127.5 179.3 126.6 178.4C125.8 177.5 124.5 177 123 177C121.5 177 119.9 177.5 118.9 178.6C117.9 179.7 117.4 181.2 117.4 183.1V191.4C117.4 191.7 117.1 192 116.8 192H115.7C115.4 192 115.1 191.7 115.1 191.4V175.7C115.1 175.4 115.4 175.1 115.7 175.1H116.7C117 175.1 117.3 175.4 117.3 175.7V176.4C117.3 177 118 177.2 118.4 176.8C118.8 176.4 119.3 176 119.9 175.8C121 175.2 122.2 175 123.6 175C125 175 126.2 175.3 127.3 175.9C128.1 176.3 128.7 176.9 129.2 177.7C129.7 178.5 129.9 178.1 130.2 177.7C130.8 177 131.5 176.4 132.4 175.9C133.6 175.3 134.9 174.9 136.4 174.9C138.5 174.9 140.2 175.5 141.4 176.7L141.3 176.8Z" fill="white"/>
<path d="M152.1 175.1H153.2C153.5 175.1 153.8 175.4 153.8 175.7V191.4C153.8 191.7 153.5 192 153.2 192H152.1C151.8 192 151.5 191.7 151.5 191.4V175.7C151.5 175.4 151.8 175.1 152.1 175.1Z" fill="white"/>
<path d="M164.7 191.2C163.4 190.5 162.3 189.4 161.6 188.1C160.8 186.8 160.5 185.3 160.5 183.6C160.5 181.9 160.9 180.5 161.6 179.2C162.4 177.9 163.4 176.9 164.7 176.1C166 175.4 167.5 175 169.2 175C170.9 175 172 175.3 173.1 175.9C174.1 176.4 174.9 177 175.5 177.9C176.1 178.8 175.6 178.6 175.3 178.7L174.6 179.2C174.3 179.4 174 179.3 173.8 179.1C173.3 178.5 172.7 178 172 177.7C171.1 177.3 170.2 177.1 169.2 177.1C168.2 177.1 166.9 177.4 165.9 177.9C164.9 178.4 164.2 179.2 163.6 180.2C163.1 181.2 162.8 182.4 162.8 183.6C162.8 184.8 163.1 186.1 163.6 187.1C164.1 188.1 164.9 188.9 165.9 189.4C166.9 189.9 168 190.2 169.2 190.2C170.4 190.2 171.1 190 172 189.6C172.7 189.3 173.3 188.8 173.8 188.2C174.3 187.6 174.4 187.9 174.6 188.1L175.3 188.6C175.6 188.8 175.7 189.2 175.5 189.4C174.9 190.2 174.1 190.9 173.1 191.4C171.9 192 170.6 192.3 169.2 192.3C167.8 192.3 166 191.9 164.7 191.2Z" fill="white"/>
<path d="M183.1 191.7C182.1 191.4 181.3 191 180.6 190.6C179.9 190.2 180.2 190.1 180.4 189.8L180.8 189C181 188.7 181.4 188.6 181.6 188.8C182.2 189.2 182.9 189.5 183.8 189.8C184.9 190.2 186 190.3 187.2 190.3C188.4 190.3 189.9 190.1 190.6 189.6C191.3 189.1 191.7 188.4 191.7 187.6C191.7 186.8 191.5 186.5 191.1 186.1C190.7 185.7 190.2 185.5 189.6 185.3C189 185.1 188.2 184.9 187.1 184.8C185.7 184.5 184.6 184.3 183.8 184C183 183.7 182.2 183.3 181.7 182.6C181.1 182 180.8 181.1 180.8 179.9C180.8 178.7 181.4 177.3 182.6 176.4C183.8 175.5 185.4 175 187.5 175C189.6 175 189.7 175.1 190.8 175.4C191.9 175.7 192.4 175.9 193 176.2C193.6 176.5 193.4 176.7 193.3 177L192.9 177.8C192.7 178.1 192.4 178.2 192.1 178C190.8 177.3 189.3 176.9 187.6 176.9C185.9 176.9 185 177.2 184.3 177.7C183.6 178.2 183.2 178.9 183.2 179.7C183.2 180.5 183.4 180.9 183.8 181.2C184.2 181.6 184.7 181.9 185.4 182.1C186 182.3 186.9 182.5 188 182.7C189.4 183 190.4 183.2 191.3 183.5C192.1 183.8 192.8 184.2 193.4 184.8C194 185.4 194.3 186.3 194.3 187.4C194.3 188.5 193.7 190.1 192.4 190.9C191.2 191.8 189.5 192.2 187.3 192.2C185.1 192.2 184.6 192 183.4 191.6L183.1 191.7Z" fill="white"/>
<path d="M192.3 25.4C192.3 12.8 159.8 0 116.5 0C111.6 0 109.2 2 109.2 4.7C109.2 7.4 111.5 9.1 115.9 9.4C148.9 11.7 170.3 17.7 170.3 25.5C170.3 33.3 137.8 42.1 97.7 42.1C57.6 42.1 25.2 34.5 25.2 25.4C25.2 16.3 48.4 12 78.8 9.4C82.8 9.1 85.5 7.2 85.5 4.7C85.5 2.2 82.9 0 78.4 0C36.6 0 3.3 12.9 3.3 25.4C3.3 25.4 0 60.3 0 73.3C0 86.3 0.799999 113.1 17.3 113.1C33.8 113.1 62.6 69.7 97.7 69.7C132.8 69.7 153.7 113.1 177.7 113.1C201.7 113.1 192.2 25.3 192.2 25.3L192.3 25.4Z" fill="white"/>
<path d="M97.1001 90.7C87.1001 90.7 76.9001 99 70.5001 105.5C67.7001 108.3 69.7001 113.1 73.7001 113.1H122.4C126.4 113.1 128.4 108.2 125.5 105.4C118.9 98.9 108.2 90.7 97.0001 90.7H97.1001Z" fill="white"/>
</g>
<defs>
<clipPath id="clip0_24_2">
<rect width="194.1" height="192.3" fill="white"/>
</clipPath>
</defs>
</svg>
