<svg width="939" height="182" viewBox="0 0 939 182" fill="none" xmlns="http://www.w3.org/2000/svg">
<g clip-path="url(#clip0_26_2)">
<path d="M280.5 45.1C280.5 26.8 233.1 8.19998 170 8.09998C162.8 8.09998 159.3 11 159.3 14.9C159.3 18.8 162.7 21.2 169.1 21.7C217.2 25.1 248.5 33.8 248.5 45.1C248.5 56.4 201.1 69.3 142.6 69.3C84.1 69.3 36.7 58.5 36.7 45.1C36.7 31.7 70.5 25.6 114.9 21.7C120.7 21.2 124.7 18.5 124.7 14.9C124.7 11.3 120.9 8.09998 114.4 8.09998C53.4 8.09998 4.8 26.9 4.8 45.1C4.8 45.1 0 96.1 0 115.1C0 134.1 1.1 173.2 25.3 173.2C49.5 173.2 91.4 109.9 142.7 109.9C194 109.9 224.4 173.2 259.5 173.2C294.6 173.2 280.6 45.1 280.6 45.1H280.5Z" fill="black"/>
<path d="M141.6 140.4C127 140.4 112.2 152.5 102.8 162C98.7001 166.1 101.7 173.1 107.5 173.1H178.6C184.5 173.1 187.4 165.9 183.1 161.8C173.4 152.3 157.9 140.3 141.5 140.3L141.6 140.4Z" fill="black"/>
<path d="M471.9 34C477.3 39.4 480 47.6 480 58.5V98.2C480 99.5 478.9 100.6 477.6 100.6H456.6C455.3 100.6 454.2 99.5 454.2 98.2V62.7C454.2 57.5 453.2 53.7 451.3 51.3C449.4 48.9 446.6 47.6 443.1 47.6C439.6 47.6 436.1 49 433.7 51.7C431.3 54.4 430.2 58.5 430.2 64V98.1C430.2 99.4 429.1 100.5 427.8 100.5H406.8C405.5 100.5 404.4 99.4 404.4 98.1V62.6C404.4 52.6 400.7 47.5 393.3 47.5C385.9 47.5 386.2 48.9 383.8 51.6C381.4 54.3 380.3 58.4 380.3 63.9V98C380.3 99.3 379.2 100.4 377.9 100.4H356.9C355.6 100.4 354.5 99.3 354.5 98V29.5C354.5 28.2 355.6 27.1 356.9 27.1H376.7C378 27.1 379.1 28.2 379.1 29.5C379.1 31.5 381.3 32.6 382.9 31.4C384.7 30.1 386.7 29 388.8 28.1C392.6 26.6 396.6 25.9 401.1 25.9C405.6 25.9 410.9 26.8 414.9 28.7C418.1 30.2 420.9 32.3 423.1 35.1C424 36.2 425.6 36.3 426.6 35.3C429.2 32.6 432.2 30.5 435.8 28.9C440.2 26.9 445.1 25.9 450.3 25.9C459.3 25.9 466.6 28.6 471.9 34Z" fill="black"/>
<path d="M579.1 29.1V98.5999C579.1 99.6999 578.2 100.6 577.1 100.6H556.5C555.4 100.6 554.5 99.6999 554.5 98.5999V97.8999C554.5 96.1999 552.6 95.3 551.3 96.3C546.7 99.9 540.5 101.7 532.8 101.7C525.1 101.7 520 100.1 514.6 97C509.1 93.9 504.8 89.3999 501.6 83.5999C498.4 77.7999 496.8 71.1 496.8 63.5C496.8 55.9 498.4 49.2 501.6 43.5C504.8 37.8 509.1 33.3999 514.6 30.2999C520.1 27.1999 526.1 25.7 532.8 25.7C539.5 25.7 545.5 27.3 550.1 30.6C551.4 31.6 553.3 30.6 553.3 29C553.3 27.8 554.2 26.9 555.3 26.9H577.1C578.2 26.9 579.1 27.8 579.1 28.9V29.1ZM549.4 76.6999C552.3 73.5999 553.7 69.3 553.7 63.7C553.7 58.1 552.3 54 549.4 51C546.5 47.9 542.8 46.4 538.3 46.4C533.8 46.4 530.1 47.9 527.2 51C524.3 54.1 522.9 58.3 522.9 63.7C522.9 69.1 524.3 73.4999 527.2 76.6999C530.1 79.7999 533.8 81.4 538.3 81.4C542.8 81.4 546.5 79.7999 549.4 76.6999Z" fill="black"/>
<path d="M608.3 99.7C603.4 98.5 599.2 97.1 595.9 95.3C594.8 94.7 594.3 93.3 594.8 92.2L600.6 79C601.2 77.7 602.7 77.2001 603.9 77.8001C606.8 79.3001 610 80.5 613.6 81.5C618.2 82.7 622.8 83.3001 627.3 83.3001C631.8 83.3001 634.4 82.9 636.2 82C638 81.1 638.8 79.9001 638.8 78.3001C638.8 76.7001 637.7 75.5001 635.6 74.8001C633.5 74.1001 630.1 73.5001 625.5 72.8001C619.6 72.1001 614.6 71.1 610.5 70C606.4 68.8 602.8 66.7 599.9 63.5C596.9 60.3 595.4 55.9001 595.4 50.2001C595.4 44.5001 596.8 41.3001 599.6 37.7001C602.4 34.0001 606.5 31.1 611.9 29C617.3 26.9 623.7 25.8 631.2 25.8C638.7 25.8 641.8 26.3 647.1 27.4C651.3 28.3 655 29.4 658.1 30.9C659.3 31.5 659.9 32.9 659.3 34.1L653.5 47.2001C652.9 48.5001 651.4 49.0001 650.2 48.4001C644.3 45.6001 638 44.2001 631.3 44.2001C624.6 44.2001 624.2 44.7 622.3 45.6C620.4 46.5 619.5 47.8 619.5 49.3C619.5 50.8 620.5 52.2001 622.6 52.9001C624.7 53.6001 628.1 54.3 632.9 55C639 55.9 644 56.9 648 58.1C652 59.3 655.4 61.4 658.4 64.5C661.3 67.6 662.8 72 662.8 77.6C662.8 83.2 661.4 86.3 658.6 90C655.8 93.7 651.7 96.5001 646.2 98.6001C640.7 100.7 634.2 101.7 626.5 101.7C618.8 101.7 614.3 101 608.3 99.6001V99.7Z" fill="black"/>
<path d="M693.7 97C687.3 93.7 682.3 89.2 678.7 83.4C675.1 77.6 673.3 71.1 673.3 63.7C673.3 56.3 675.1 49.8 678.7 44.1C682.3 38.4 687.3 33.9 693.7 30.7C700.1 27.5 707.4 25.9 715.5 25.9C723.6 25.9 731 27.7 737.1 31.3C742.6 34.5 746.6 38.9 749.2 44.4C749.6 45.4 749.2 46.5 748.3 47L731.8 55.4C730.9 55.9 729.7 55.6 729.2 54.7C725.9 49.2 721.3 46.4 715.4 46.4C709.5 46.4 707 47.9 703.9 51C700.9 54.1 699.4 58.3 699.4 63.7C699.4 69.1 700.9 73.5 703.9 76.7C706.9 79.8 710.7 81.4 715.4 81.4C720.1 81.4 725.9 78.6 729.2 73.1C729.7 72.2 730.9 71.9 731.8 72.4L748.3 80.8C749.2 81.3 749.7 82.4 749.2 83.4C746.6 88.9 742.6 93.3 737.1 96.5C731 100.1 723.9 101.9 715.5 101.9C707.1 101.9 700.1 100.3 693.7 97Z" fill="black"/>
<path d="M833.5 34C839.1 39.4 841.8 47.6 841.8 58.5V98.2C841.8 99.5 840.7 100.6 839.4 100.6H818.4C817.1 100.6 816 99.5 816 98.2V62.7C816 52.7 812 47.6 803.9 47.6C795.8 47.6 795.9 49 793.3 51.9C790.6 54.8 789.3 59.1 789.3 64.9V98.1C789.3 99.4 788.2 100.5 786.9 100.5H765.9C764.6 100.5 763.5 99.4 763.5 98.1V2.4C763.5 1.1 764.6 0 765.9 0H786.9C788.2 0 789.3 1.1 789.3 2.4V29C789.3 30.9 791.4 32.1 792.9 31C794.8 29.7 796.9 28.7 799.2 27.9C803 26.5 807.1 25.9 811.4 25.9C820.5 25.9 827.9 28.6 833.4 34H833.5Z" fill="black"/>
<path d="M911.6 80.7C913.7 79.9 915.8 78.7 918 77C918.8 76.4 920 76.4 920.7 77.2L931.5 88.6C932.2 89.4 932.3 90.6001 931.5 91.4001C924.6 98.4001 914.6 101.9 901.6 101.9C888.6 101.9 885.5 100.3 879 97C872.5 93.7 867.4 89.2001 863.9 83.4001C860.3 77.6001 858.5 71.1001 858.5 63.7001C858.5 56.3001 860.3 50.0001 863.8 44.2001C867.3 38.5001 872.2 34.0001 878.4 30.7001C884.6 27.4001 891.5 25.8 899.2 25.8C906.9 25.8 912.9 27.3001 918.8 30.2001C924.7 33.1001 929.4 37.4 933 43.1C936.3 48.3 938 54.5 938.3 61.5C938.3 62.5 937.6 63.4 936.6 63.5L888.6 72.7C887.2 73 886.4 74.6001 887.3 75.8001C890.4 80.0001 895.4 82 902.4 82C909.4 82 909 81.5 911.6 80.5V80.7ZM888.5 48.3C886.2 50.5 884.8 53.5 884.1 57.3C883.9 58.7 885.1 59.9 886.5 59.6L911.2 54.8C912.5 54.5 913.2 53.1 912.6 52C911.6 50 910.2 48.3 908.4 47C905.9 45.1 902.8 44.2001 899.3 44.2001C895.8 44.2001 891.3 45.6 888.5 48.3Z" fill="black"/>
<path d="M406.7 131.6V178.9C406.7 179.9 405.9 180.7 404.9 180.7H402C401 180.7 400.2 179.9 400.2 178.9V176C400.2 174.3 398.2 173.6 397 174.7C395.5 176.2 393.9 177.4 392 178.4C388.6 180.2 384.8 181.1 380.5 181.1C376.2 181.1 371.4 180 367.5 177.8C363.6 175.6 360.6 172.5 358.4 168.6C356.2 164.7 355.1 160.2 355.1 155.1C355.1 150 356.2 145.6 358.4 141.6C360.6 137.7 363.6 134.6 367.5 132.4C371.4 130.2 375.7 129.2 380.5 129.2C385.3 129.2 388.4 130.1 391.7 131.8C393.6 132.8 395.3 134 396.8 135.4C398 136.5 399.9 135.8 399.9 134.1V131.4C399.9 130.4 400.7 129.6 401.7 129.6H404.9C405.9 129.6 406.7 130.4 406.7 131.4V131.6ZM390.6 172.7C393.5 171.1 395.7 168.7 397.4 165.7C399 162.7 399.9 159.2 399.9 155.3C399.9 151.4 399.1 148 397.4 144.9C395.8 141.9 393.5 139.5 390.6 137.9C387.7 136.3 384.5 135.4 381 135.4C377.5 135.4 374.1 136.2 371.3 137.9C368.4 139.5 366.2 141.9 364.5 144.9C362.9 147.9 362 151.4 362 155.3C362 159.2 362.8 162.6 364.5 165.7C366.1 168.7 368.4 171.1 371.3 172.7C374.2 174.3 377.4 175.2 381 175.2C384.6 175.2 387.8 174.4 390.6 172.7Z" fill="black"/>
<path d="M439.7 177.9C435.7 175.7 432.6 172.6 430.4 168.6C428.1 164.6 427 160.2 427 155.2C427 150.2 428.1 145.8 430.4 141.8C432.7 137.9 435.8 134.8 439.7 132.6C443.7 130.4 448.2 129.3 453.2 129.3C458.2 129.3 461.5 130.2 465 131.9C467.9 133.3 470.3 135.3 472.2 137.9C472.8 138.7 472.5 139.9 471.7 140.4L469.5 141.9C468.7 142.5 467.6 142.2 467 141.5C465.5 139.7 463.7 138.3 461.7 137.3C459.1 136 456.3 135.4 453.3 135.4C450.3 135.4 446.3 136.2 443.4 137.9C440.5 139.5 438.2 141.9 436.5 144.9C434.9 147.9 434 151.4 434 155.3C434 159.2 434.8 162.7 436.5 165.7C438.1 168.7 440.4 171 443.4 172.7C446.3 174.3 449.6 175.2 453.3 175.2C457 175.2 459.1 174.6 461.7 173.4C463.8 172.4 465.6 171 467 169.2C467.6 168.4 468.7 168.2 469.5 168.8L471.7 170.3C472.5 170.9 472.8 172 472.2 172.9C470.3 175.5 467.9 177.4 465 178.9C461.5 180.6 457.6 181.5 453.3 181.5C449 181.5 443.8 180.4 439.8 178.2L439.7 177.9Z" fill="black"/>
<path d="M538.6 131.6V178.9C538.6 179.9 537.8 180.7 536.8 180.7H533.9C532.9 180.7 532.1 179.9 532.1 178.9V176C532.1 174.3 530.1 173.6 528.9 174.7C527.4 176.2 525.8 177.4 523.9 178.4C520.5 180.2 516.7 181.1 512.4 181.1C508.1 181.1 503.3 180 499.4 177.8C495.5 175.6 492.5 172.5 490.3 168.6C488.1 164.7 487 160.2 487 155.1C487 150 488.1 145.6 490.3 141.6C492.5 137.7 495.5 134.6 499.4 132.4C503.3 130.2 507.6 129.2 512.4 129.2C517.2 129.2 520.3 130.1 523.6 131.8C525.5 132.8 527.2 134 528.7 135.4C529.9 136.5 531.8 135.8 531.8 134.1V131.4C531.8 130.4 532.6 129.6 533.6 129.6H536.8C537.8 129.6 538.6 130.4 538.6 131.4V131.6ZM522.6 172.7C525.5 171.1 527.7 168.7 529.4 165.7C531 162.7 531.9 159.2 531.9 155.3C531.9 151.4 531.1 148 529.4 144.9C527.8 141.9 525.5 139.5 522.6 137.9C519.7 136.3 516.5 135.4 513 135.4C509.5 135.4 506.1 136.2 503.3 137.9C500.4 139.5 498.2 141.9 496.5 144.9C494.9 147.9 494 151.4 494 155.3C494 159.2 494.8 162.6 496.5 165.7C498.1 168.7 500.4 171.1 503.3 172.7C506.2 174.3 509.4 175.2 513 175.2C516.6 175.2 519.8 174.4 522.6 172.7Z" fill="black"/>
<path d="M610.6 113.7V178.9C610.6 179.9 609.8 180.7 608.8 180.7H605.9C604.9 180.7 604.1 179.9 604.1 178.9V176C604.1 174.3 602.1 173.6 600.9 174.7C599.7 175.8 597.8 177.4 595.9 178.4C592.5 180.2 588.7 181.1 584.4 181.1C580.1 181.1 575.3 180 571.4 177.8C567.5 175.6 564.5 172.5 562.3 168.6C560.1 164.7 559 160.2 559 155.1C559 150 560.1 145.6 562.3 141.6C564.5 137.7 567.5 134.6 571.4 132.4C575.3 130.2 579.6 129.2 584.4 129.2C589.2 129.2 592.3 130.1 595.6 131.8C597.5 132.8 599.2 134 600.7 135.4C601.9 136.5 603.8 135.8 603.8 134.1V113.5C603.8 112.5 604.6 111.7 605.6 111.7H608.8C609.8 111.7 610.6 112.5 610.6 113.5V113.7ZM594.5 172.7C597.4 171.1 599.6 168.7 601.3 165.7C602.9 162.7 603.8 159.2 603.8 155.3C603.8 151.4 603 148 601.3 144.9C599.7 141.9 597.4 139.5 594.5 137.9C591.6 136.3 588.4 135.4 584.9 135.4C581.4 135.4 578 136.2 575.2 137.9C572.3 139.5 570.1 141.9 568.4 144.9C566.8 147.9 565.9 151.4 565.9 155.3C565.9 159.2 566.7 162.6 568.4 165.7C570 168.7 572.3 171.1 575.2 172.7C578.1 174.3 581.3 175.2 584.9 175.2C588.5 175.2 591.7 174.4 594.5 172.7Z" fill="black"/>
<path d="M666.6 173.4C668.7 172.5 670.5 171.3 672.1 169.8C672.8 169.1 674 169.2 674.7 170L676.2 171.7C676.8 172.4 676.8 173.5 676.2 174.1C674.1 176.2 671.7 177.9 668.9 179.1C665.5 180.5 661.8 181.2 657.8 181.2C653.8 181.2 647.9 180.1 643.9 177.9C639.8 175.7 636.7 172.6 634.4 168.6C632.1 164.7 631 160.2 631 155.2C631 150.2 632.1 145.8 634.2 141.8C636.4 137.9 639.3 134.8 643.2 132.6C647 130.4 651.3 129.3 656.2 129.3C661.1 129.3 664.8 130.3 668.5 132.4C672.1 134.5 675.1 137.3 677.2 141C679.1 144.3 680.2 147.9 680.6 152C680.6 152.9 680 153.8 679.1 153.9L641 161.3C639.8 161.5 639.2 162.8 639.7 163.9C641.1 167 643.1 169.5 645.9 171.5C649.3 173.9 653.3 175 658.1 175C662.9 175 664.2 174.4 666.9 173.3L666.6 173.4ZM646.5 137.8C643.7 139.4 641.5 141.7 639.9 144.7C638.3 147.6 637.5 151 637.5 154.8C637.5 158.6 637.5 156.5 637.5 156.9L671.6 150.3C672.7 150.1 673.3 149 673 147.9C672 144.5 670.2 141.7 667.6 139.4C664.4 136.7 660.6 135.3 656 135.3C651.4 135.3 649.3 136.1 646.5 137.8Z" fill="black"/>
<path d="M779.4 134.9C783 138.6 784.9 144 784.9 151.2V178.9C784.9 179.9 784.1 180.7 783.1 180.7H779.9C778.9 180.7 778.1 179.9 778.1 178.9V151.9C778.1 146.6 776.8 142.6 774.3 139.8C771.7 137 768.1 135.6 763.5 135.6C758.9 135.6 754 137.2 751 140.5C748 143.8 746.4 148.3 746.4 154V178.9C746.4 179.9 745.6 180.7 744.6 180.7H741.4C740.4 180.7 739.6 179.9 739.6 178.9V151.9C739.6 146.6 738.3 142.6 735.8 139.8C733.2 137 729.6 135.6 724.9 135.6C720.2 135.6 715.5 137.2 712.5 140.5C709.4 143.8 707.9 148.3 707.9 154V178.9C707.9 179.9 707.1 180.7 706.1 180.7H702.9C701.9 180.7 701.1 179.9 701.1 178.9V131.6C701.1 130.6 701.9 129.8 702.9 129.8H705.8C706.8 129.8 707.6 130.6 707.6 131.6V133.8C707.6 135.5 709.6 136.2 710.8 135.1C712.1 133.9 713.5 132.8 715.2 132C718.4 130.3 722.1 129.5 726.3 129.5C730.5 129.5 734.3 130.4 737.4 132.2C739.7 133.5 741.6 135.4 743 137.6C743.7 138.7 745.2 138.8 746 137.7C747.7 135.5 749.9 133.7 752.5 132.3C756 130.4 760 129.4 764.6 129.4C771 129.4 776 131.2 779.7 134.9H779.4Z" fill="black"/>
<path d="M811.7 129.8H814.9C815.9 129.8 816.7 130.6 816.7 131.6V178.9C816.7 179.9 815.9 180.7 814.9 180.7H811.7C810.7 180.7 809.9 179.9 809.9 178.9V131.6C809.9 130.6 810.7 129.8 811.7 129.8Z" fill="black"/>
<path d="M849.9 177.9C845.9 175.7 842.8 172.6 840.6 168.6C838.3 164.6 837.2 160.2 837.2 155.2C837.2 150.2 838.3 145.8 840.6 141.8C842.9 137.9 846 134.8 849.9 132.6C853.9 130.4 858.4 129.3 863.4 129.3C868.4 129.3 871.7 130.2 875.2 131.9C878.1 133.3 880.5 135.3 882.4 137.9C884.3 140.5 882.7 139.9 881.9 140.4L879.7 141.9C878.9 142.5 877.8 142.2 877.2 141.5C875.7 139.7 873.9 138.3 871.9 137.3C869.3 136 866.5 135.4 863.5 135.4C860.5 135.4 856.5 136.2 853.6 137.9C850.7 139.5 848.4 141.9 846.7 144.9C845.1 147.9 844.2 151.4 844.2 155.3C844.2 159.2 845 162.7 846.7 165.7C848.3 168.7 850.6 171 853.6 172.7C856.5 174.3 859.8 175.2 863.5 175.2C867.2 175.2 869.3 174.6 871.9 173.4C874 172.4 875.8 171 877.2 169.2C877.8 168.4 878.9 168.2 879.7 168.8L881.9 170.3C882.7 170.9 883 172 882.4 172.9C880.5 175.5 878.1 177.4 875.2 178.9C871.7 180.6 867.8 181.5 863.5 181.5C859.2 181.5 854 180.4 850 178.2L849.9 177.9Z" fill="black"/>
<path d="M904.9 179.4C901.9 178.4 899.4 177.3 897.4 175.9C896.6 175.3 896.3 174.3 896.8 173.4L898.1 171.1C898.6 170.2 899.8 169.9 900.6 170.4C902.4 171.6 904.6 172.6 907.1 173.4C910.3 174.5 913.7 175 917.2 175C920.7 175 925.3 174.3 927.5 172.8C929.7 171.3 930.8 169.3 930.8 166.6C930.8 163.9 930.2 163.3 929 162.2C927.8 161.1 926.2 160.3 924.4 159.8C922.5 159.3 920 158.7 916.9 158.2C912.8 157.4 909.4 156.6 906.9 155.8C904.4 155 902.2 153.6 900.5 151.7C898.7 149.8 897.8 147.1 897.8 143.7C897.8 140.3 899.6 136 903.1 133.2C906.7 130.5 911.6 129.1 917.9 129.1C924.2 129.1 924.5 129.5 927.8 130.4C931.1 131.3 932.5 131.9 934.3 132.9C935.2 133.4 935.6 134.5 935.1 135.4L933.9 137.7C933.4 138.6 932.3 138.9 931.4 138.4C927.6 136.2 923.1 135.1 918 135.1C912.9 135.1 910.3 135.9 908.1 137.4C905.9 139 904.8 141 904.8 143.5C904.8 146 905.4 147 906.7 148.1C908 149.3 909.5 150.1 911.4 150.7C913.3 151.2 915.9 151.8 919.1 152.4C923.2 153.2 926.4 153.9 928.9 154.7C931.4 155.5 933.5 156.8 935.2 158.7C936.9 160.6 937.8 163.2 937.8 166.4C937.8 169.6 935.9 174.4 932.2 177C928.5 179.6 923.3 180.9 916.8 180.9C910.3 180.9 908.7 180.3 904.9 179.1V179.4Z" fill="black"/>
</g>
<defs>
<clipPath id="clip0_26_2">
<rect width="938.2" height="181.2" fill="white"/>
</clipPath>
</defs>
</svg>
