<svg width="380" height="380" viewBox="0 0 380 380" fill="none" xmlns="http://www.w3.org/2000/svg">
<rect width="380" height="380" fill="white"/>
<path d="M336.146 141.852C336.146 122.579 286.433 103 220.201 103C212.706 103 209.034 106.059 209.034 110.189C209.034 114.319 212.553 116.92 219.283 117.378C269.76 120.897 302.494 130.074 302.494 142.005C302.494 153.936 252.782 167.397 191.444 167.397C130.106 167.397 80.5464 155.772 80.5464 141.852C80.5464 127.933 116.034 121.355 162.534 117.378C168.653 116.92 172.783 114.013 172.783 110.189C172.783 106.365 168.805 103 161.922 103C97.9841 103 47.0477 122.732 47.0477 141.852C47.0477 141.852 42 195.236 42 215.121C42 235.006 43.2237 276 68.4624 276C93.7012 276 137.754 209.614 191.444 209.614C245.134 209.614 277.103 276 313.813 276C350.524 276 335.993 141.699 335.993 141.699L336.146 141.852Z" fill="#4B2E83"/>
<path d="M190.526 241.737C175.23 241.737 159.628 254.432 149.838 264.375C145.555 268.658 148.615 276 154.733 276H229.226C235.344 276 238.403 268.505 233.967 264.222C223.872 254.279 207.505 241.737 190.373 241.737H190.526Z" fill="#4B2E83"/>
</svg>
